ISO-10303-21;
HEADER;
/* Generated by software containing ST-Developer
 * from STEP Tools, Inc. (www.steptools.com) 
 */

FILE_DESCRIPTION(
/* description */ (''),
/* implementation_level */ '2;1');

FILE_NAME(
/* name */ 'Big switch case v2.step',
/* time_stamp */ '2026-01-19T15:01:39-07:00',
/* author */ (''),
/* organization */ (''),
/* preprocessor_version */ 'ST-DEVELOPER v20.1',
/* originating_system */ 'Autodesk Translation Framework v14.21.0.0',
/* authorisation */ '');

FILE_SCHEMA (('AUTOMOTIVE_DESIGN { 1 0 10303 214 3 1 1 }'));
ENDSEC;

DATA;
#10=MECHANICAL_DESIGN_GEOMETRIC_PRESENTATION_REPRESENTATION('',(#13),#1335);
#11=SHAPE_REPRESENTATION_RELATIONSHIP('SRR','None',#1342,#12);
#12=ADVANCED_BREP_SHAPE_REPRESENTATION('',(#14),#1334);
#13=STYLED_ITEM('',(#1352),#14);
#14=MANIFOLD_SOLID_BREP('Body1',#771);
#15=SPHERICAL_SURFACE('',#822,1.99999999999999);
#16=SPHERICAL_SURFACE('',#828,1.99999999999999);
#17=SPHERICAL_SURFACE('',#834,2.);
#18=SPHERICAL_SURFACE('',#841,1.99999999999999);
#19=CYLINDRICAL_SURFACE('',#797,1.);
#20=CYLINDRICAL_SURFACE('',#798,1.);
#21=CYLINDRICAL_SURFACE('',#810,1.);
#22=CYLINDRICAL_SURFACE('',#811,1.);
#23=CYLINDRICAL_SURFACE('',#812,1.);
#24=CYLINDRICAL_SURFACE('',#814,1.);
#25=CYLINDRICAL_SURFACE('',#816,1.);
#26=CYLINDRICAL_SURFACE('',#817,1.);
#27=CYLINDRICAL_SURFACE('',#826,2.);
#28=CYLINDRICAL_SURFACE('',#832,2.);
#29=CYLINDRICAL_SURFACE('',#838,2.);
#30=CYLINDRICAL_SURFACE('',#840,2.);
#31=CYLINDRICAL_SURFACE('',#845,2.);
#32=CYLINDRICAL_SURFACE('',#847,2.);
#33=CYLINDRICAL_SURFACE('',#848,2.);
#34=CYLINDRICAL_SURFACE('',#849,2.);
#35=CYLINDRICAL_SURFACE('',#855,3.00000000000001);
#36=CYLINDRICAL_SURFACE('',#858,3.);
#37=CIRCLE('',#788,1.99999999999999);
#38=CIRCLE('',#789,1.);
#39=CIRCLE('',#790,0.999999999999996);
#40=CIRCLE('',#791,1.);
#41=CIRCLE('',#793,2.00000000000001);
#42=CIRCLE('',#794,0.999999999999996);
#43=CIRCLE('',#795,1.00000000000001);
#44=CIRCLE('',#796,1.);
#45=CIRCLE('',#799,1.);
#46=CIRCLE('',#801,2.);
#47=CIRCLE('',#802,0.999999999999996);
#48=CIRCLE('',#803,0.999999999999996);
#49=CIRCLE('',#804,1.);
#50=CIRCLE('',#806,1.00000000000001);
#51=CIRCLE('',#807,1.);
#52=CIRCLE('',#808,2.00000000000001);
#53=CIRCLE('',#809,0.999999999999996);
#54=CIRCLE('',#813,1.);
#55=CIRCLE('',#815,1.);
#56=CIRCLE('',#818,1.);
#57=CIRCLE('',#823,2.);
#58=CIRCLE('',#824,1.99999999999999);
#59=CIRCLE('',#825,2.);
#60=CIRCLE('',#827,2.);
#61=CIRCLE('',#829,1.99999999999999);
#62=CIRCLE('',#830,1.99999999999999);
#63=CIRCLE('',#831,2.);
#64=CIRCLE('',#833,2.);
#65=CIRCLE('',#835,2.);
#66=CIRCLE('',#836,2.);
#67=CIRCLE('',#837,2.);
#68=CIRCLE('',#839,2.);
#69=CIRCLE('',#842,1.99999999999999);
#70=CIRCLE('',#843,1.99999999999999);
#71=CIRCLE('',#844,2.);
#72=CIRCLE('',#846,2.);
#73=CIRCLE('',#852,3.);
#74=CIRCLE('',#853,3.00000000000001);
#75=CIRCLE('',#856,3.00000000000001);
#76=CIRCLE('',#859,3.);
#77=TOROIDAL_SURFACE('',#787,1.99999999999999,1.);
#78=TOROIDAL_SURFACE('',#792,2.00000000000001,1.);
#79=TOROIDAL_SURFACE('',#800,2.,1.);
#80=TOROIDAL_SURFACE('',#805,1.99999999999999,0.999999999999996);
#81=FACE_BOUND('',#137,.T.);
#82=FACE_BOUND('',#153,.T.);
#83=FACE_BOUND('',#168,.T.);
#84=FACE_BOUND('',#169,.T.);
#85=FACE_BOUND('',#170,.T.);
#86=FACE_BOUND('',#172,.T.);
#87=FACE_BOUND('',#183,.T.);
#88=FACE_OUTER_BOUND('',#135,.T.);
#89=FACE_OUTER_BOUND('',#136,.T.);
#90=FACE_OUTER_BOUND('',#138,.T.);
#91=FACE_OUTER_BOUND('',#139,.T.);
#92=FACE_OUTER_BOUND('',#140,.T.);
#93=FACE_OUTER_BOUND('',#141,.T.);
#94=FACE_OUTER_BOUND('',#142,.T.);
#95=FACE_OUTER_BOUND('',#143,.T.);
#96=FACE_OUTER_BOUND('',#144,.T.);
#97=FACE_OUTER_BOUND('',#145,.T.);
#98=FACE_OUTER_BOUND('',#146,.T.);
#99=FACE_OUTER_BOUND('',#147,.T.);
#100=FACE_OUTER_BOUND('',#148,.T.);
#101=FACE_OUTER_BOUND('',#149,.T.);
#102=FACE_OUTER_BOUND('',#150,.T.);
#103=FACE_OUTER_BOUND('',#151,.T.);
#104=FACE_OUTER_BOUND('',#152,.T.);
#105=FACE_OUTER_BOUND('',#154,.T.);
#106=FACE_OUTER_BOUND('',#155,.T.);
#107=FACE_OUTER_BOUND('',#156,.T.);
#108=FACE_OUTER_BOUND('',#157,.T.);
#109=FACE_OUTER_BOUND('',#158,.T.);
#110=FACE_OUTER_BOUND('',#159,.T.);
#111=FACE_OUTER_BOUND('',#160,.T.);
#112=FACE_OUTER_BOUND('',#161,.T.);
#113=FACE_OUTER_BOUND('',#162,.T.);
#114=FACE_OUTER_BOUND('',#163,.T.);
#115=FACE_OUTER_BOUND('',#164,.T.);
#116=FACE_OUTER_BOUND('',#165,.T.);
#117=FACE_OUTER_BOUND('',#166,.T.);
#118=FACE_OUTER_BOUND('',#167,.T.);
#119=FACE_OUTER_BOUND('',#171,.T.);
#120=FACE_OUTER_BOUND('',#173,.T.);
#121=FACE_OUTER_BOUND('',#174,.T.);
#122=FACE_OUTER_BOUND('',#175,.T.);
#123=FACE_OUTER_BOUND('',#176,.T.);
#124=FACE_OUTER_BOUND('',#177,.T.);
#125=FACE_OUTER_BOUND('',#178,.T.);
#126=FACE_OUTER_BOUND('',#179,.T.);
#127=FACE_OUTER_BOUND('',#180,.T.);
#128=FACE_OUTER_BOUND('',#181,.T.);
#129=FACE_OUTER_BOUND('',#182,.T.);
#130=FACE_OUTER_BOUND('',#184,.T.);
#131=FACE_OUTER_BOUND('',#185,.T.);
#132=FACE_OUTER_BOUND('',#186,.T.);
#133=FACE_OUTER_BOUND('',#187,.T.);
#134=FACE_OUTER_BOUND('',#188,.T.);
#135=EDGE_LOOP('',(#491,#492,#493,#494));
#136=EDGE_LOOP('',(#495,#496,#497,#498));
#137=EDGE_LOOP('',(#499,#500,#501,#502));
#138=EDGE_LOOP('',(#503,#504,#505,#506));
#139=EDGE_LOOP('',(#507,#508,#509,#510));
#140=EDGE_LOOP('',(#511,#512,#513,#514));
#141=EDGE_LOOP('',(#515,#516,#517,#518));
#142=EDGE_LOOP('',(#519,#520,#521,#522));
#143=EDGE_LOOP('',(#523,#524,#525,#526));
#144=EDGE_LOOP('',(#527,#528,#529,#530));
#145=EDGE_LOOP('',(#531,#532,#533,#534));
#146=EDGE_LOOP('',(#535,#536,#537,#538));
#147=EDGE_LOOP('',(#539,#540,#541,#542));
#148=EDGE_LOOP('',(#543,#544,#545,#546));
#149=EDGE_LOOP('',(#547,#548,#549,#550));
#150=EDGE_LOOP('',(#551,#552,#553,#554));
#151=EDGE_LOOP('',(#555,#556,#557,#558));
#152=EDGE_LOOP('',(#559,#560,#561,#562));
#153=EDGE_LOOP('',(#563,#564,#565,#566,#567,#568,#569,#570));
#154=EDGE_LOOP('',(#571,#572,#573));
#155=EDGE_LOOP('',(#574,#575,#576,#577));
#156=EDGE_LOOP('',(#578,#579,#580));
#157=EDGE_LOOP('',(#581,#582,#583,#584));
#158=EDGE_LOOP('',(#585,#586,#587));
#159=EDGE_LOOP('',(#588,#589,#590,#591));
#160=EDGE_LOOP('',(#592,#593,#594,#595));
#161=EDGE_LOOP('',(#596,#597,#598));
#162=EDGE_LOOP('',(#599,#600,#601,#602));
#163=EDGE_LOOP('',(#603,#604,#605,#606));
#164=EDGE_LOOP('',(#607,#608,#609,#610));
#165=EDGE_LOOP('',(#611,#612,#613,#614));
#166=EDGE_LOOP('',(#615,#616,#617,#618));
#167=EDGE_LOOP('',(#619,#620,#621,#622));
#168=EDGE_LOOP('',(#623,#624,#625,#626));
#169=EDGE_LOOP('',(#627));
#170=EDGE_LOOP('',(#628));
#171=EDGE_LOOP('',(#629,#630,#631,#632,#633,#634,#635,#636));
#172=EDGE_LOOP('',(#637,#638,#639,#640));
#173=EDGE_LOOP('',(#641,#642,#643,#644));
#174=EDGE_LOOP('',(#645));
#175=EDGE_LOOP('',(#646,#647,#648,#649));
#176=EDGE_LOOP('',(#650));
#177=EDGE_LOOP('',(#651,#652,#653,#654));
#178=EDGE_LOOP('',(#655,#656,#657,#658));
#179=EDGE_LOOP('',(#659,#660,#661,#662));
#180=EDGE_LOOP('',(#663,#664,#665,#666));
#181=EDGE_LOOP('',(#667,#668,#669,#670));
#182=EDGE_LOOP('',(#671,#672,#673,#674));
#183=EDGE_LOOP('',(#675,#676,#677,#678,#679,#680,#681,#682));
#184=EDGE_LOOP('',(#683,#684,#685,#686));
#185=EDGE_LOOP('',(#687,#688,#689,#690));
#186=EDGE_LOOP('',(#691,#692,#693,#694));
#187=EDGE_LOOP('',(#695,#696,#697,#698));
#188=EDGE_LOOP('',(#699,#700,#701,#702));
#189=LINE('',#1118,#255);
#190=LINE('',#1120,#256);
#191=LINE('',#1122,#257);
#192=LINE('',#1123,#258);
#193=LINE('',#1127,#259);
#194=LINE('',#1129,#260);
#195=LINE('',#1131,#261);
#196=LINE('',#1132,#262);
#197=LINE('',#1134,#263);
#198=LINE('',#1136,#264);
#199=LINE('',#1137,#265);
#200=LINE('',#1157,#266);
#201=LINE('',#1158,#267);
#202=LINE('',#1163,#268);
#203=LINE('',#1164,#269);
#204=LINE('',#1184,#270);
#205=LINE('',#1185,#271);
#206=LINE('',#1187,#272);
#207=LINE('',#1188,#273);
#208=LINE('',#1193,#274);
#209=LINE('',#1194,#275);
#210=LINE('',#1199,#276);
#211=LINE('',#1200,#277);
#212=LINE('',#1202,#278);
#213=LINE('',#1203,#279);
#214=LINE('',#1208,#280);
#215=LINE('',#1209,#281);
#216=LINE('',#1211,#282);
#217=LINE('',#1213,#283);
#218=LINE('',#1217,#284);
#219=LINE('',#1219,#285);
#220=LINE('',#1221,#286);
#221=LINE('',#1222,#287);
#222=LINE('',#1233,#288);
#223=LINE('',#1234,#289);
#224=LINE('',#1245,#290);
#225=LINE('',#1246,#291);
#226=LINE('',#1257,#292);
#227=LINE('',#1258,#293);
#228=LINE('',#1260,#294);
#229=LINE('',#1271,#295);
#230=LINE('',#1272,#296);
#231=LINE('',#1274,#297);
#232=LINE('',#1276,#298);
#233=LINE('',#1278,#299);
#234=LINE('',#1280,#300);
#235=LINE('',#1282,#301);
#236=LINE('',#1284,#302);
#237=LINE('',#1286,#303);
#238=LINE('',#1287,#304);
#239=LINE('',#1293,#305);
#240=LINE('',#1294,#306);
#241=LINE('',#1296,#307);
#242=LINE('',#1298,#308);
#243=LINE('',#1299,#309);
#244=LINE('',#1302,#310);
#245=LINE('',#1307,#311);
#246=LINE('',#1311,#312);
#247=LINE('',#1313,#313);
#248=LINE('',#1316,#314);
#249=LINE('',#1318,#315);
#250=LINE('',#1322,#316);
#251=LINE('',#1323,#317);
#252=LINE('',#1324,#318);
#253=LINE('',#1326,#319);
#254=LINE('',#1328,#320);
#255=VECTOR('',#876,10.);
#256=VECTOR('',#877,10.);
#257=VECTOR('',#878,10.);
#258=VECTOR('',#879,10.);
#259=VECTOR('',#882,10.);
#260=VECTOR('',#883,10.);
#261=VECTOR('',#884,10.);
#262=VECTOR('',#885,10.);
#263=VECTOR('',#886,10.);
#264=VECTOR('',#887,10.);
#265=VECTOR('',#888,10.);
#266=VECTOR('',#911,10.);
#267=VECTOR('',#912,10.);
#268=VECTOR('',#917,10.);
#269=VECTOR('',#918,10.);
#270=VECTOR('',#941,10.);
#271=VECTOR('',#942,10.);
#272=VECTOR('',#945,10.);
#273=VECTOR('',#946,10.);
#274=VECTOR('',#951,10.);
#275=VECTOR('',#952,10.);
#276=VECTOR('',#957,10.);
#277=VECTOR('',#958,10.);
#278=VECTOR('',#961,10.);
#279=VECTOR('',#962,10.);
#280=VECTOR('',#967,10.);
#281=VECTOR('',#968,10.);
#282=VECTOR('',#971,10.);
#283=VECTOR('',#974,10.);
#284=VECTOR('',#977,10.);
#285=VECTOR('',#978,10.);
#286=VECTOR('',#979,10.);
#287=VECTOR('',#980,10.);
#288=VECTOR('',#993,10.);
#289=VECTOR('',#994,10.);
#290=VECTOR('',#1007,10.);
#291=VECTOR('',#1008,10.);
#292=VECTOR('',#1021,10.);
#293=VECTOR('',#1022,10.);
#294=VECTOR('',#1025,10.);
#295=VECTOR('',#1038,10.);
#296=VECTOR('',#1039,10.);
#297=VECTOR('',#1042,10.);
#298=VECTOR('',#1045,10.);
#299=VECTOR('',#1048,10.);
#300=VECTOR('',#1051,10.);
#301=VECTOR('',#1054,10.);
#302=VECTOR('',#1055,10.);
#303=VECTOR('',#1056,10.);
#304=VECTOR('',#1057,10.);
#305=VECTOR('',#1064,10.);
#306=VECTOR('',#1065,10.);
#307=VECTOR('',#1066,10.);
#308=VECTOR('',#1067,10.);
#309=VECTOR('',#1068,10.);
#310=VECTOR('',#1071,3.00000000000001);
#311=VECTOR('',#1078,3.);
#312=VECTOR('',#1085,10.);
#313=VECTOR('',#1088,10.);
#314=VECTOR('',#1093,10.);
#315=VECTOR('',#1096,10.);
#316=VECTOR('',#1099,10.);
#317=VECTOR('',#1100,10.);
#318=VECTOR('',#1101,10.);
#319=VECTOR('',#1104,10.);
#320=VECTOR('',#1107,10.);
#321=VERTEX_POINT('',#1116);
#322=VERTEX_POINT('',#1117);
#323=VERTEX_POINT('',#1119);
#324=VERTEX_POINT('',#1121);
#325=VERTEX_POINT('',#1125);
#326=VERTEX_POINT('',#1126);
#327=VERTEX_POINT('',#1128);
#328=VERTEX_POINT('',#1130);
#329=VERTEX_POINT('',#1133);
#330=VERTEX_POINT('',#1135);
#331=VERTEX_POINT('',#1139);
#332=VERTEX_POINT('',#1140);
#333=VERTEX_POINT('',#1142);
#334=VERTEX_POINT('',#1144);
#335=VERTEX_POINT('',#1148);
#336=VERTEX_POINT('',#1149);
#337=VERTEX_POINT('',#1151);
#338=VERTEX_POINT('',#1153);
#339=VERTEX_POINT('',#1160);
#340=VERTEX_POINT('',#1161);
#341=VERTEX_POINT('',#1166);
#342=VERTEX_POINT('',#1167);
#343=VERTEX_POINT('',#1169);
#344=VERTEX_POINT('',#1171);
#345=VERTEX_POINT('',#1175);
#346=VERTEX_POINT('',#1176);
#347=VERTEX_POINT('',#1178);
#348=VERTEX_POINT('',#1180);
#349=VERTEX_POINT('',#1190);
#350=VERTEX_POINT('',#1191);
#351=VERTEX_POINT('',#1196);
#352=VERTEX_POINT('',#1197);
#353=VERTEX_POINT('',#1205);
#354=VERTEX_POINT('',#1206);
#355=VERTEX_POINT('',#1215);
#356=VERTEX_POINT('',#1216);
#357=VERTEX_POINT('',#1218);
#358=VERTEX_POINT('',#1220);
#359=VERTEX_POINT('',#1224);
#360=VERTEX_POINT('',#1226);
#361=VERTEX_POINT('',#1230);
#362=VERTEX_POINT('',#1231);
#363=VERTEX_POINT('',#1236);
#364=VERTEX_POINT('',#1238);
#365=VERTEX_POINT('',#1242);
#366=VERTEX_POINT('',#1243);
#367=VERTEX_POINT('',#1248);
#368=VERTEX_POINT('',#1250);
#369=VERTEX_POINT('',#1254);
#370=VERTEX_POINT('',#1255);
#371=VERTEX_POINT('',#1262);
#372=VERTEX_POINT('',#1264);
#373=VERTEX_POINT('',#1268);
#374=VERTEX_POINT('',#1269);
#375=VERTEX_POINT('',#1283);
#376=VERTEX_POINT('',#1285);
#377=VERTEX_POINT('',#1288);
#378=VERTEX_POINT('',#1290);
#379=VERTEX_POINT('',#1295);
#380=VERTEX_POINT('',#1297);
#381=VERTEX_POINT('',#1301);
#382=VERTEX_POINT('',#1306);
#383=VERTEX_POINT('',#1320);
#384=VERTEX_POINT('',#1321);
#385=EDGE_CURVE('',#321,#322,#189,.T.);
#386=EDGE_CURVE('',#323,#322,#190,.T.);
#387=EDGE_CURVE('',#324,#323,#191,.T.);
#388=EDGE_CURVE('',#324,#321,#192,.T.);
#389=EDGE_CURVE('',#325,#326,#193,.T.);
#390=EDGE_CURVE('',#327,#325,#194,.T.);
#391=EDGE_CURVE('',#327,#328,#195,.T.);
#392=EDGE_CURVE('',#328,#326,#196,.T.);
#393=EDGE_CURVE('',#321,#329,#197,.T.);
#394=EDGE_CURVE('',#329,#330,#198,.T.);
#395=EDGE_CURVE('',#330,#322,#199,.T.);
#396=EDGE_CURVE('',#331,#332,#37,.T.);
#397=EDGE_CURVE('',#333,#332,#38,.T.);
#398=EDGE_CURVE('',#334,#333,#39,.F.);
#399=EDGE_CURVE('',#331,#334,#40,.T.);
#400=EDGE_CURVE('',#335,#336,#41,.T.);
#401=EDGE_CURVE('',#337,#336,#42,.T.);
#402=EDGE_CURVE('',#338,#337,#43,.F.);
#403=EDGE_CURVE('',#335,#338,#44,.T.);
#404=EDGE_CURVE('',#336,#331,#200,.T.);
#405=EDGE_CURVE('',#334,#337,#201,.T.);
#406=EDGE_CURVE('',#339,#340,#45,.T.);
#407=EDGE_CURVE('',#340,#338,#202,.T.);
#408=EDGE_CURVE('',#337,#339,#203,.T.);
#409=EDGE_CURVE('',#341,#342,#46,.T.);
#410=EDGE_CURVE('',#343,#342,#47,.T.);
#411=EDGE_CURVE('',#344,#343,#48,.F.);
#412=EDGE_CURVE('',#341,#344,#49,.T.);
#413=EDGE_CURVE('',#345,#346,#50,.F.);
#414=EDGE_CURVE('',#347,#345,#51,.T.);
#415=EDGE_CURVE('',#347,#348,#52,.T.);
#416=EDGE_CURVE('',#346,#348,#53,.T.);
#417=EDGE_CURVE('',#342,#347,#204,.T.);
#418=EDGE_CURVE('',#345,#343,#205,.T.);
#419=EDGE_CURVE('',#348,#335,#206,.T.);
#420=EDGE_CURVE('',#338,#346,#207,.T.);
#421=EDGE_CURVE('',#349,#350,#54,.T.);
#422=EDGE_CURVE('',#350,#345,#208,.T.);
#423=EDGE_CURVE('',#346,#349,#209,.T.);
#424=EDGE_CURVE('',#351,#352,#55,.T.);
#425=EDGE_CURVE('',#352,#344,#210,.T.);
#426=EDGE_CURVE('',#343,#351,#211,.T.);
#427=EDGE_CURVE('',#332,#341,#212,.T.);
#428=EDGE_CURVE('',#344,#333,#213,.T.);
#429=EDGE_CURVE('',#353,#354,#56,.T.);
#430=EDGE_CURVE('',#354,#334,#214,.T.);
#431=EDGE_CURVE('',#333,#353,#215,.T.);
#432=EDGE_CURVE('',#349,#340,#216,.T.);
#433=EDGE_CURVE('',#339,#354,#217,.T.);
#434=EDGE_CURVE('',#355,#356,#218,.T.);
#435=EDGE_CURVE('',#357,#355,#219,.T.);
#436=EDGE_CURVE('',#358,#357,#220,.T.);
#437=EDGE_CURVE('',#356,#358,#221,.T.);
#438=EDGE_CURVE('',#359,#355,#57,.F.);
#439=EDGE_CURVE('',#360,#359,#58,.F.);
#440=EDGE_CURVE('',#355,#360,#59,.F.);
#441=EDGE_CURVE('',#361,#362,#60,.T.);
#442=EDGE_CURVE('',#362,#360,#222,.T.);
#443=EDGE_CURVE('',#359,#361,#223,.T.);
#444=EDGE_CURVE('',#363,#357,#61,.F.);
#445=EDGE_CURVE('',#364,#363,#62,.F.);
#446=EDGE_CURVE('',#357,#364,#63,.F.);
#447=EDGE_CURVE('',#365,#366,#64,.T.);
#448=EDGE_CURVE('',#366,#364,#224,.T.);
#449=EDGE_CURVE('',#363,#365,#225,.T.);
#450=EDGE_CURVE('',#367,#356,#65,.F.);
#451=EDGE_CURVE('',#368,#367,#66,.F.);
#452=EDGE_CURVE('',#356,#368,#67,.F.);
#453=EDGE_CURVE('',#369,#370,#68,.T.);
#454=EDGE_CURVE('',#370,#368,#226,.T.);
#455=EDGE_CURVE('',#367,#369,#227,.T.);
#456=EDGE_CURVE('',#368,#359,#228,.T.);
#457=EDGE_CURVE('',#371,#358,#69,.F.);
#458=EDGE_CURVE('',#372,#371,#70,.F.);
#459=EDGE_CURVE('',#358,#372,#71,.F.);
#460=EDGE_CURVE('',#373,#374,#72,.T.);
#461=EDGE_CURVE('',#374,#372,#229,.T.);
#462=EDGE_CURVE('',#371,#373,#230,.T.);
#463=EDGE_CURVE('',#372,#367,#231,.T.);
#464=EDGE_CURVE('',#364,#371,#232,.T.);
#465=EDGE_CURVE('',#360,#363,#233,.T.);
#466=EDGE_CURVE('',#361,#370,#234,.T.);
#467=EDGE_CURVE('',#369,#374,#235,.T.);
#468=EDGE_CURVE('',#375,#324,#236,.T.);
#469=EDGE_CURVE('',#323,#376,#237,.T.);
#470=EDGE_CURVE('',#376,#375,#238,.T.);
#471=EDGE_CURVE('',#377,#377,#73,.T.);
#472=EDGE_CURVE('',#378,#378,#74,.T.);
#473=EDGE_CURVE('',#373,#366,#239,.T.);
#474=EDGE_CURVE('',#365,#362,#240,.T.);
#475=EDGE_CURVE('',#379,#327,#241,.T.);
#476=EDGE_CURVE('',#325,#380,#242,.T.);
#477=EDGE_CURVE('',#380,#379,#243,.T.);
#478=EDGE_CURVE('',#378,#381,#244,.T.);
#479=EDGE_CURVE('',#381,#381,#75,.T.);
#480=EDGE_CURVE('',#377,#382,#245,.T.);
#481=EDGE_CURVE('',#382,#382,#76,.T.);
#482=EDGE_CURVE('',#375,#329,#246,.T.);
#483=EDGE_CURVE('',#376,#330,#247,.T.);
#484=EDGE_CURVE('',#353,#352,#248,.T.);
#485=EDGE_CURVE('',#351,#350,#249,.T.);
#486=EDGE_CURVE('',#383,#384,#250,.T.);
#487=EDGE_CURVE('',#326,#383,#251,.T.);
#488=EDGE_CURVE('',#384,#328,#252,.T.);
#489=EDGE_CURVE('',#380,#383,#253,.T.);
#490=EDGE_CURVE('',#379,#384,#254,.T.);
#491=ORIENTED_EDGE('',*,*,#385,.T.);
#492=ORIENTED_EDGE('',*,*,#386,.F.);
#493=ORIENTED_EDGE('',*,*,#387,.F.);
#494=ORIENTED_EDGE('',*,*,#388,.T.);
#495=ORIENTED_EDGE('',*,*,#389,.F.);
#496=ORIENTED_EDGE('',*,*,#390,.F.);
#497=ORIENTED_EDGE('',*,*,#391,.T.);
#498=ORIENTED_EDGE('',*,*,#392,.T.);
#499=ORIENTED_EDGE('',*,*,#393,.T.);
#500=ORIENTED_EDGE('',*,*,#394,.T.);
#501=ORIENTED_EDGE('',*,*,#395,.T.);
#502=ORIENTED_EDGE('',*,*,#385,.F.);
#503=ORIENTED_EDGE('',*,*,#396,.T.);
#504=ORIENTED_EDGE('',*,*,#397,.F.);
#505=ORIENTED_EDGE('',*,*,#398,.F.);
#506=ORIENTED_EDGE('',*,*,#399,.F.);
#507=ORIENTED_EDGE('',*,*,#400,.T.);
#508=ORIENTED_EDGE('',*,*,#401,.F.);
#509=ORIENTED_EDGE('',*,*,#402,.F.);
#510=ORIENTED_EDGE('',*,*,#403,.F.);
#511=ORIENTED_EDGE('',*,*,#401,.T.);
#512=ORIENTED_EDGE('',*,*,#404,.T.);
#513=ORIENTED_EDGE('',*,*,#399,.T.);
#514=ORIENTED_EDGE('',*,*,#405,.T.);
#515=ORIENTED_EDGE('',*,*,#406,.T.);
#516=ORIENTED_EDGE('',*,*,#407,.T.);
#517=ORIENTED_EDGE('',*,*,#402,.T.);
#518=ORIENTED_EDGE('',*,*,#408,.T.);
#519=ORIENTED_EDGE('',*,*,#409,.T.);
#520=ORIENTED_EDGE('',*,*,#410,.F.);
#521=ORIENTED_EDGE('',*,*,#411,.F.);
#522=ORIENTED_EDGE('',*,*,#412,.F.);
#523=ORIENTED_EDGE('',*,*,#413,.F.);
#524=ORIENTED_EDGE('',*,*,#414,.F.);
#525=ORIENTED_EDGE('',*,*,#415,.T.);
#526=ORIENTED_EDGE('',*,*,#416,.F.);
#527=ORIENTED_EDGE('',*,*,#410,.T.);
#528=ORIENTED_EDGE('',*,*,#417,.T.);
#529=ORIENTED_EDGE('',*,*,#414,.T.);
#530=ORIENTED_EDGE('',*,*,#418,.T.);
#531=ORIENTED_EDGE('',*,*,#416,.T.);
#532=ORIENTED_EDGE('',*,*,#419,.T.);
#533=ORIENTED_EDGE('',*,*,#403,.T.);
#534=ORIENTED_EDGE('',*,*,#420,.T.);
#535=ORIENTED_EDGE('',*,*,#421,.T.);
#536=ORIENTED_EDGE('',*,*,#422,.T.);
#537=ORIENTED_EDGE('',*,*,#413,.T.);
#538=ORIENTED_EDGE('',*,*,#423,.T.);
#539=ORIENTED_EDGE('',*,*,#424,.T.);
#540=ORIENTED_EDGE('',*,*,#425,.T.);
#541=ORIENTED_EDGE('',*,*,#411,.T.);
#542=ORIENTED_EDGE('',*,*,#426,.T.);
#543=ORIENTED_EDGE('',*,*,#397,.T.);
#544=ORIENTED_EDGE('',*,*,#427,.T.);
#545=ORIENTED_EDGE('',*,*,#412,.T.);
#546=ORIENTED_EDGE('',*,*,#428,.T.);
#547=ORIENTED_EDGE('',*,*,#429,.T.);
#548=ORIENTED_EDGE('',*,*,#430,.T.);
#549=ORIENTED_EDGE('',*,*,#398,.T.);
#550=ORIENTED_EDGE('',*,*,#431,.T.);
#551=ORIENTED_EDGE('',*,*,#423,.F.);
#552=ORIENTED_EDGE('',*,*,#420,.F.);
#553=ORIENTED_EDGE('',*,*,#407,.F.);
#554=ORIENTED_EDGE('',*,*,#432,.F.);
#555=ORIENTED_EDGE('',*,*,#408,.F.);
#556=ORIENTED_EDGE('',*,*,#405,.F.);
#557=ORIENTED_EDGE('',*,*,#430,.F.);
#558=ORIENTED_EDGE('',*,*,#433,.F.);
#559=ORIENTED_EDGE('',*,*,#434,.F.);
#560=ORIENTED_EDGE('',*,*,#435,.F.);
#561=ORIENTED_EDGE('',*,*,#436,.F.);
#562=ORIENTED_EDGE('',*,*,#437,.F.);
#563=ORIENTED_EDGE('',*,*,#415,.F.);
#564=ORIENTED_EDGE('',*,*,#417,.F.);
#565=ORIENTED_EDGE('',*,*,#409,.F.);
#566=ORIENTED_EDGE('',*,*,#427,.F.);
#567=ORIENTED_EDGE('',*,*,#396,.F.);
#568=ORIENTED_EDGE('',*,*,#404,.F.);
#569=ORIENTED_EDGE('',*,*,#400,.F.);
#570=ORIENTED_EDGE('',*,*,#419,.F.);
#571=ORIENTED_EDGE('',*,*,#438,.F.);
#572=ORIENTED_EDGE('',*,*,#439,.F.);
#573=ORIENTED_EDGE('',*,*,#440,.F.);
#574=ORIENTED_EDGE('',*,*,#441,.T.);
#575=ORIENTED_EDGE('',*,*,#442,.T.);
#576=ORIENTED_EDGE('',*,*,#439,.T.);
#577=ORIENTED_EDGE('',*,*,#443,.T.);
#578=ORIENTED_EDGE('',*,*,#444,.F.);
#579=ORIENTED_EDGE('',*,*,#445,.F.);
#580=ORIENTED_EDGE('',*,*,#446,.F.);
#581=ORIENTED_EDGE('',*,*,#447,.T.);
#582=ORIENTED_EDGE('',*,*,#448,.T.);
#583=ORIENTED_EDGE('',*,*,#445,.T.);
#584=ORIENTED_EDGE('',*,*,#449,.T.);
#585=ORIENTED_EDGE('',*,*,#450,.F.);
#586=ORIENTED_EDGE('',*,*,#451,.F.);
#587=ORIENTED_EDGE('',*,*,#452,.F.);
#588=ORIENTED_EDGE('',*,*,#453,.T.);
#589=ORIENTED_EDGE('',*,*,#454,.T.);
#590=ORIENTED_EDGE('',*,*,#451,.T.);
#591=ORIENTED_EDGE('',*,*,#455,.T.);
#592=ORIENTED_EDGE('',*,*,#438,.T.);
#593=ORIENTED_EDGE('',*,*,#434,.T.);
#594=ORIENTED_EDGE('',*,*,#452,.T.);
#595=ORIENTED_EDGE('',*,*,#456,.T.);
#596=ORIENTED_EDGE('',*,*,#457,.F.);
#597=ORIENTED_EDGE('',*,*,#458,.F.);
#598=ORIENTED_EDGE('',*,*,#459,.F.);
#599=ORIENTED_EDGE('',*,*,#460,.T.);
#600=ORIENTED_EDGE('',*,*,#461,.T.);
#601=ORIENTED_EDGE('',*,*,#458,.T.);
#602=ORIENTED_EDGE('',*,*,#462,.T.);
#603=ORIENTED_EDGE('',*,*,#450,.T.);
#604=ORIENTED_EDGE('',*,*,#437,.T.);
#605=ORIENTED_EDGE('',*,*,#459,.T.);
#606=ORIENTED_EDGE('',*,*,#463,.T.);
#607=ORIENTED_EDGE('',*,*,#457,.T.);
#608=ORIENTED_EDGE('',*,*,#436,.T.);
#609=ORIENTED_EDGE('',*,*,#446,.T.);
#610=ORIENTED_EDGE('',*,*,#464,.T.);
#611=ORIENTED_EDGE('',*,*,#444,.T.);
#612=ORIENTED_EDGE('',*,*,#435,.T.);
#613=ORIENTED_EDGE('',*,*,#440,.T.);
#614=ORIENTED_EDGE('',*,*,#465,.T.);
#615=ORIENTED_EDGE('',*,*,#443,.F.);
#616=ORIENTED_EDGE('',*,*,#456,.F.);
#617=ORIENTED_EDGE('',*,*,#454,.F.);
#618=ORIENTED_EDGE('',*,*,#466,.F.);
#619=ORIENTED_EDGE('',*,*,#455,.F.);
#620=ORIENTED_EDGE('',*,*,#463,.F.);
#621=ORIENTED_EDGE('',*,*,#461,.F.);
#622=ORIENTED_EDGE('',*,*,#467,.F.);
#623=ORIENTED_EDGE('',*,*,#468,.T.);
#624=ORIENTED_EDGE('',*,*,#387,.T.);
#625=ORIENTED_EDGE('',*,*,#469,.T.);
#626=ORIENTED_EDGE('',*,*,#470,.T.);
#627=ORIENTED_EDGE('',*,*,#471,.T.);
#628=ORIENTED_EDGE('',*,*,#472,.T.);
#629=ORIENTED_EDGE('',*,*,#441,.F.);
#630=ORIENTED_EDGE('',*,*,#466,.T.);
#631=ORIENTED_EDGE('',*,*,#453,.F.);
#632=ORIENTED_EDGE('',*,*,#467,.T.);
#633=ORIENTED_EDGE('',*,*,#460,.F.);
#634=ORIENTED_EDGE('',*,*,#473,.T.);
#635=ORIENTED_EDGE('',*,*,#447,.F.);
#636=ORIENTED_EDGE('',*,*,#474,.T.);
#637=ORIENTED_EDGE('',*,*,#475,.T.);
#638=ORIENTED_EDGE('',*,*,#390,.T.);
#639=ORIENTED_EDGE('',*,*,#476,.T.);
#640=ORIENTED_EDGE('',*,*,#477,.T.);
#641=ORIENTED_EDGE('',*,*,#472,.F.);
#642=ORIENTED_EDGE('',*,*,#478,.T.);
#643=ORIENTED_EDGE('',*,*,#479,.T.);
#644=ORIENTED_EDGE('',*,*,#478,.F.);
#645=ORIENTED_EDGE('',*,*,#479,.F.);
#646=ORIENTED_EDGE('',*,*,#471,.F.);
#647=ORIENTED_EDGE('',*,*,#480,.T.);
#648=ORIENTED_EDGE('',*,*,#481,.T.);
#649=ORIENTED_EDGE('',*,*,#480,.F.);
#650=ORIENTED_EDGE('',*,*,#481,.F.);
#651=ORIENTED_EDGE('',*,*,#468,.F.);
#652=ORIENTED_EDGE('',*,*,#482,.T.);
#653=ORIENTED_EDGE('',*,*,#393,.F.);
#654=ORIENTED_EDGE('',*,*,#388,.F.);
#655=ORIENTED_EDGE('',*,*,#470,.F.);
#656=ORIENTED_EDGE('',*,*,#483,.T.);
#657=ORIENTED_EDGE('',*,*,#394,.F.);
#658=ORIENTED_EDGE('',*,*,#482,.F.);
#659=ORIENTED_EDGE('',*,*,#469,.F.);
#660=ORIENTED_EDGE('',*,*,#386,.T.);
#661=ORIENTED_EDGE('',*,*,#395,.F.);
#662=ORIENTED_EDGE('',*,*,#483,.F.);
#663=ORIENTED_EDGE('',*,*,#425,.F.);
#664=ORIENTED_EDGE('',*,*,#484,.F.);
#665=ORIENTED_EDGE('',*,*,#431,.F.);
#666=ORIENTED_EDGE('',*,*,#428,.F.);
#667=ORIENTED_EDGE('',*,*,#422,.F.);
#668=ORIENTED_EDGE('',*,*,#485,.F.);
#669=ORIENTED_EDGE('',*,*,#426,.F.);
#670=ORIENTED_EDGE('',*,*,#418,.F.);
#671=ORIENTED_EDGE('',*,*,#486,.F.);
#672=ORIENTED_EDGE('',*,*,#487,.F.);
#673=ORIENTED_EDGE('',*,*,#392,.F.);
#674=ORIENTED_EDGE('',*,*,#488,.F.);
#675=ORIENTED_EDGE('',*,*,#485,.T.);
#676=ORIENTED_EDGE('',*,*,#421,.F.);
#677=ORIENTED_EDGE('',*,*,#432,.T.);
#678=ORIENTED_EDGE('',*,*,#406,.F.);
#679=ORIENTED_EDGE('',*,*,#433,.T.);
#680=ORIENTED_EDGE('',*,*,#429,.F.);
#681=ORIENTED_EDGE('',*,*,#484,.T.);
#682=ORIENTED_EDGE('',*,*,#424,.F.);
#683=ORIENTED_EDGE('',*,*,#389,.T.);
#684=ORIENTED_EDGE('',*,*,#487,.T.);
#685=ORIENTED_EDGE('',*,*,#489,.F.);
#686=ORIENTED_EDGE('',*,*,#476,.F.);
#687=ORIENTED_EDGE('',*,*,#489,.T.);
#688=ORIENTED_EDGE('',*,*,#486,.T.);
#689=ORIENTED_EDGE('',*,*,#490,.F.);
#690=ORIENTED_EDGE('',*,*,#477,.F.);
#691=ORIENTED_EDGE('',*,*,#490,.T.);
#692=ORIENTED_EDGE('',*,*,#488,.T.);
#693=ORIENTED_EDGE('',*,*,#391,.F.);
#694=ORIENTED_EDGE('',*,*,#475,.F.);
#695=ORIENTED_EDGE('',*,*,#442,.F.);
#696=ORIENTED_EDGE('',*,*,#474,.F.);
#697=ORIENTED_EDGE('',*,*,#449,.F.);
#698=ORIENTED_EDGE('',*,*,#465,.F.);
#699=ORIENTED_EDGE('',*,*,#448,.F.);
#700=ORIENTED_EDGE('',*,*,#473,.F.);
#701=ORIENTED_EDGE('',*,*,#462,.F.);
#702=ORIENTED_EDGE('',*,*,#464,.F.);
#703=PLANE('',#785);
#704=PLANE('',#786);
#705=PLANE('',#819);
#706=PLANE('',#820);
#707=PLANE('',#821);
#708=PLANE('',#850);
#709=PLANE('',#851);
#710=PLANE('',#854);
#711=PLANE('',#857);
#712=PLANE('',#860);
#713=PLANE('',#861);
#714=PLANE('',#862);
#715=PLANE('',#863);
#716=PLANE('',#864);
#717=PLANE('',#865);
#718=PLANE('',#866);
#719=PLANE('',#867);
#720=PLANE('',#868);
#721=PLANE('',#869);
#722=PLANE('',#870);
#723=PLANE('',#871);
#724=ADVANCED_FACE('',(#88),#703,.F.);
#725=ADVANCED_FACE('',(#89,#81),#704,.T.);
#726=ADVANCED_FACE('',(#90),#77,.T.);
#727=ADVANCED_FACE('',(#91),#78,.T.);
#728=ADVANCED_FACE('',(#92),#19,.T.);
#729=ADVANCED_FACE('',(#93),#20,.F.);
#730=ADVANCED_FACE('',(#94),#79,.T.);
#731=ADVANCED_FACE('',(#95),#80,.T.);
#732=ADVANCED_FACE('',(#96),#21,.T.);
#733=ADVANCED_FACE('',(#97),#22,.T.);
#734=ADVANCED_FACE('',(#98),#23,.F.);
#735=ADVANCED_FACE('',(#99),#24,.F.);
#736=ADVANCED_FACE('',(#100),#25,.T.);
#737=ADVANCED_FACE('',(#101),#26,.F.);
#738=ADVANCED_FACE('',(#102),#705,.T.);
#739=ADVANCED_FACE('',(#103),#706,.T.);
#740=ADVANCED_FACE('',(#104,#82),#707,.T.);
#741=ADVANCED_FACE('',(#105),#15,.T.);
#742=ADVANCED_FACE('',(#106),#27,.T.);
#743=ADVANCED_FACE('',(#107),#16,.T.);
#744=ADVANCED_FACE('',(#108),#28,.T.);
#745=ADVANCED_FACE('',(#109),#17,.T.);
#746=ADVANCED_FACE('',(#110),#29,.T.);
#747=ADVANCED_FACE('',(#111),#30,.T.);
#748=ADVANCED_FACE('',(#112),#18,.T.);
#749=ADVANCED_FACE('',(#113),#31,.T.);
#750=ADVANCED_FACE('',(#114),#32,.T.);
#751=ADVANCED_FACE('',(#115),#33,.T.);
#752=ADVANCED_FACE('',(#116),#34,.T.);
#753=ADVANCED_FACE('',(#117),#708,.T.);
#754=ADVANCED_FACE('',(#118,#83,#84,#85),#709,.T.);
#755=ADVANCED_FACE('',(#119,#86),#710,.T.);
#756=ADVANCED_FACE('',(#120),#35,.F.);
#757=ADVANCED_FACE('',(#121),#711,.T.);
#758=ADVANCED_FACE('',(#122),#36,.F.);
#759=ADVANCED_FACE('',(#123),#712,.T.);
#760=ADVANCED_FACE('',(#124),#713,.F.);
#761=ADVANCED_FACE('',(#125),#714,.F.);
#762=ADVANCED_FACE('',(#126),#715,.F.);
#763=ADVANCED_FACE('',(#127),#716,.T.);
#764=ADVANCED_FACE('',(#128),#717,.T.);
#765=ADVANCED_FACE('',(#129,#87),#718,.T.);
#766=ADVANCED_FACE('',(#130),#719,.T.);
#767=ADVANCED_FACE('',(#131),#720,.T.);
#768=ADVANCED_FACE('',(#132),#721,.T.);
#769=ADVANCED_FACE('',(#133),#722,.T.);
#770=ADVANCED_FACE('',(#134),#723,.T.);
#771=CLOSED_SHELL('',(#724,#725,#726,#727,#728,#729,#730,#731,#732,#733,
#734,#735,#736,#737,#738,#739,#740,#741,#742,#743,#744,#745,#746,#747,#748,
#749,#750,#751,#752,#753,#754,#755,#756,#757,#758,#759,#760,#761,#762,#763,
#764,#765,#766,#767,#768,#769,#770));
#772=DERIVED_UNIT_ELEMENT(#774,1.);
#773=DERIVED_UNIT_ELEMENT(#1337,-3.);
#774=(
MASS_UNIT()
NAMED_UNIT(*)
SI_UNIT(.KILO.,.GRAM.)
);
#775=DERIVED_UNIT((#772,#773));
#776=MEASURE_REPRESENTATION_ITEM('density measure',
POSITIVE_RATIO_MEASURE(7850.),#775);
#777=PROPERTY_DEFINITION_REPRESENTATION(#782,#779);
#778=PROPERTY_DEFINITION_REPRESENTATION(#783,#780);
#779=REPRESENTATION('material name',(#781),#1334);
#780=REPRESENTATION('density',(#776),#1334);
#781=DESCRIPTIVE_REPRESENTATION_ITEM('Steel','Steel');
#782=PROPERTY_DEFINITION('material property','material name',#1344);
#783=PROPERTY_DEFINITION('material property','density of part',#1344);
#784=AXIS2_PLACEMENT_3D('',#1114,#872,#873);
#785=AXIS2_PLACEMENT_3D('',#1115,#874,#875);
#786=AXIS2_PLACEMENT_3D('',#1124,#880,#881);
#787=AXIS2_PLACEMENT_3D('',#1138,#889,#890);
#788=AXIS2_PLACEMENT_3D('',#1141,#891,#892);
#789=AXIS2_PLACEMENT_3D('',#1143,#893,#894);
#790=AXIS2_PLACEMENT_3D('',#1145,#895,#896);
#791=AXIS2_PLACEMENT_3D('',#1146,#897,#898);
#792=AXIS2_PLACEMENT_3D('',#1147,#899,#900);
#793=AXIS2_PLACEMENT_3D('',#1150,#901,#902);
#794=AXIS2_PLACEMENT_3D('',#1152,#903,#904);
#795=AXIS2_PLACEMENT_3D('',#1154,#905,#906);
#796=AXIS2_PLACEMENT_3D('',#1155,#907,#908);
#797=AXIS2_PLACEMENT_3D('',#1156,#909,#910);
#798=AXIS2_PLACEMENT_3D('',#1159,#913,#914);
#799=AXIS2_PLACEMENT_3D('',#1162,#915,#916);
#800=AXIS2_PLACEMENT_3D('',#1165,#919,#920);
#801=AXIS2_PLACEMENT_3D('',#1168,#921,#922);
#802=AXIS2_PLACEMENT_3D('',#1170,#923,#924);
#803=AXIS2_PLACEMENT_3D('',#1172,#925,#926);
#804=AXIS2_PLACEMENT_3D('',#1173,#927,#928);
#805=AXIS2_PLACEMENT_3D('',#1174,#929,#930);
#806=AXIS2_PLACEMENT_3D('',#1177,#931,#932);
#807=AXIS2_PLACEMENT_3D('',#1179,#933,#934);
#808=AXIS2_PLACEMENT_3D('',#1181,#935,#936);
#809=AXIS2_PLACEMENT_3D('',#1182,#937,#938);
#810=AXIS2_PLACEMENT_3D('',#1183,#939,#940);
#811=AXIS2_PLACEMENT_3D('',#1186,#943,#944);
#812=AXIS2_PLACEMENT_3D('',#1189,#947,#948);
#813=AXIS2_PLACEMENT_3D('',#1192,#949,#950);
#814=AXIS2_PLACEMENT_3D('',#1195,#953,#954);
#815=AXIS2_PLACEMENT_3D('',#1198,#955,#956);
#816=AXIS2_PLACEMENT_3D('',#1201,#959,#960);
#817=AXIS2_PLACEMENT_3D('',#1204,#963,#964);
#818=AXIS2_PLACEMENT_3D('',#1207,#965,#966);
#819=AXIS2_PLACEMENT_3D('',#1210,#969,#970);
#820=AXIS2_PLACEMENT_3D('',#1212,#972,#973);
#821=AXIS2_PLACEMENT_3D('',#1214,#975,#976);
#822=AXIS2_PLACEMENT_3D('',#1223,#981,#982);
#823=AXIS2_PLACEMENT_3D('',#1225,#983,#984);
#824=AXIS2_PLACEMENT_3D('',#1227,#985,#986);
#825=AXIS2_PLACEMENT_3D('',#1228,#987,#988);
#826=AXIS2_PLACEMENT_3D('',#1229,#989,#990);
#827=AXIS2_PLACEMENT_3D('',#1232,#991,#992);
#828=AXIS2_PLACEMENT_3D('',#1235,#995,#996);
#829=AXIS2_PLACEMENT_3D('',#1237,#997,#998);
#830=AXIS2_PLACEMENT_3D('',#1239,#999,#1000);
#831=AXIS2_PLACEMENT_3D('',#1240,#1001,#1002);
#832=AXIS2_PLACEMENT_3D('',#1241,#1003,#1004);
#833=AXIS2_PLACEMENT_3D('',#1244,#1005,#1006);
#834=AXIS2_PLACEMENT_3D('',#1247,#1009,#1010);
#835=AXIS2_PLACEMENT_3D('',#1249,#1011,#1012);
#836=AXIS2_PLACEMENT_3D('',#1251,#1013,#1014);
#837=AXIS2_PLACEMENT_3D('',#1252,#1015,#1016);
#838=AXIS2_PLACEMENT_3D('',#1253,#1017,#1018);
#839=AXIS2_PLACEMENT_3D('',#1256,#1019,#1020);
#840=AXIS2_PLACEMENT_3D('',#1259,#1023,#1024);
#841=AXIS2_PLACEMENT_3D('',#1261,#1026,#1027);
#842=AXIS2_PLACEMENT_3D('',#1263,#1028,#1029);
#843=AXIS2_PLACEMENT_3D('',#1265,#1030,#1031);
#844=AXIS2_PLACEMENT_3D('',#1266,#1032,#1033);
#845=AXIS2_PLACEMENT_3D('',#1267,#1034,#1035);
#846=AXIS2_PLACEMENT_3D('',#1270,#1036,#1037);
#847=AXIS2_PLACEMENT_3D('',#1273,#1040,#1041);
#848=AXIS2_PLACEMENT_3D('',#1275,#1043,#1044);
#849=AXIS2_PLACEMENT_3D('',#1277,#1046,#1047);
#850=AXIS2_PLACEMENT_3D('',#1279,#1049,#1050);
#851=AXIS2_PLACEMENT_3D('',#1281,#1052,#1053);
#852=AXIS2_PLACEMENT_3D('',#1289,#1058,#1059);
#853=AXIS2_PLACEMENT_3D('',#1291,#1060,#1061);
#854=AXIS2_PLACEMENT_3D('',#1292,#1062,#1063);
#855=AXIS2_PLACEMENT_3D('',#1300,#1069,#1070);
#856=AXIS2_PLACEMENT_3D('',#1303,#1072,#1073);
#857=AXIS2_PLACEMENT_3D('',#1304,#1074,#1075);
#858=AXIS2_PLACEMENT_3D('',#1305,#1076,#1077);
#859=AXIS2_PLACEMENT_3D('',#1308,#1079,#1080);
#860=AXIS2_PLACEMENT_3D('',#1309,#1081,#1082);
#861=AXIS2_PLACEMENT_3D('',#1310,#1083,#1084);
#862=AXIS2_PLACEMENT_3D('',#1312,#1086,#1087);
#863=AXIS2_PLACEMENT_3D('',#1314,#1089,#1090);
#864=AXIS2_PLACEMENT_3D('',#1315,#1091,#1092);
#865=AXIS2_PLACEMENT_3D('',#1317,#1094,#1095);
#866=AXIS2_PLACEMENT_3D('',#1319,#1097,#1098);
#867=AXIS2_PLACEMENT_3D('',#1325,#1102,#1103);
#868=AXIS2_PLACEMENT_3D('',#1327,#1105,#1106);
#869=AXIS2_PLACEMENT_3D('',#1329,#1108,#1109);
#870=AXIS2_PLACEMENT_3D('',#1330,#1110,#1111);
#871=AXIS2_PLACEMENT_3D('',#1331,#1112,#1113);
#872=DIRECTION('axis',(0.,0.,1.));
#873=DIRECTION('refdir',(1.,0.,0.));
#874=DIRECTION('center_axis',(0.,0.,1.));
#875=DIRECTION('ref_axis',(1.,0.,0.));
#876=DIRECTION('',(1.,0.,0.));
#877=DIRECTION('',(0.,1.,0.));
#878=DIRECTION('',(1.,0.,0.));
#879=DIRECTION('',(0.,1.,0.));
#880=DIRECTION('center_axis',(-5.13742695276015E-34,1.,0.));
#881=DIRECTION('ref_axis',(1.,5.13742695276015E-34,-2.56938324883339E-18));
#882=DIRECTION('',(0.,0.,-1.));
#883=DIRECTION('',(-1.,0.,0.));
#884=DIRECTION('',(0.,0.,-1.));
#885=DIRECTION('',(-1.,-5.13742695276015E-34,0.));
#886=DIRECTION('',(0.,0.,-1.));
#887=DIRECTION('',(1.,5.13742695276015E-34,0.));
#888=DIRECTION('',(0.,0.,1.));
#889=DIRECTION('center_axis',(0.,0.,-1.));
#890=DIRECTION('ref_axis',(-1.,0.,0.));
#891=DIRECTION('center_axis',(0.,0.,-1.));
#892=DIRECTION('ref_axis',(-0.707106781186548,-0.707106781186548,0.));
#893=DIRECTION('center_axis',(0.,1.,0.));
#894=DIRECTION('ref_axis',(1.,0.,0.));
#895=DIRECTION('center_axis',(0.,0.,1.));
#896=DIRECTION('ref_axis',(0.,-1.,0.));
#897=DIRECTION('center_axis',(1.,0.,0.));
#898=DIRECTION('ref_axis',(0.,0.,-1.));
#899=DIRECTION('center_axis',(0.,0.,-1.));
#900=DIRECTION('ref_axis',(-1.,0.,0.));
#901=DIRECTION('center_axis',(0.,0.,-1.));
#902=DIRECTION('ref_axis',(0.707106781186554,-0.707106781186541,0.));
#903=DIRECTION('center_axis',(-1.,0.,0.));
#904=DIRECTION('ref_axis',(0.,1.,0.));
#905=DIRECTION('center_axis',(0.,0.,1.));
#906=DIRECTION('ref_axis',(1.,0.,0.));
#907=DIRECTION('center_axis',(0.,1.,0.));
#908=DIRECTION('ref_axis',(0.,0.,-1.));
#909=DIRECTION('center_axis',(1.,0.,0.));
#910=DIRECTION('ref_axis',(0.,0.707106781186548,-0.707106781186548));
#911=DIRECTION('',(-1.,0.,0.));
#912=DIRECTION('',(1.,0.,0.));
#913=DIRECTION('center_axis',(0.,0.,1.));
#914=DIRECTION('ref_axis',(0.707106781186554,-0.707106781186541,0.));
#915=DIRECTION('center_axis',(0.,0.,1.));
#916=DIRECTION('ref_axis',(0.707106781186554,-0.707106781186541,0.));
#917=DIRECTION('',(0.,0.,-1.));
#918=DIRECTION('',(0.,0.,1.));
#919=DIRECTION('center_axis',(0.,0.,-1.));
#920=DIRECTION('ref_axis',(-1.,0.,0.));
#921=DIRECTION('center_axis',(0.,0.,-1.));
#922=DIRECTION('ref_axis',(-0.707106781186548,0.707106781186548,0.));
#923=DIRECTION('center_axis',(1.,0.,0.));
#924=DIRECTION('ref_axis',(0.,-1.,0.));
#925=DIRECTION('center_axis',(0.,0.,1.));
#926=DIRECTION('ref_axis',(-1.,0.,0.));
#927=DIRECTION('center_axis',(0.,-1.,0.));
#928=DIRECTION('ref_axis',(0.,0.,-1.));
#929=DIRECTION('center_axis',(0.,0.,1.));
#930=DIRECTION('ref_axis',(1.,0.,0.));
#931=DIRECTION('center_axis',(0.,0.,1.));
#932=DIRECTION('ref_axis',(0.,1.,0.));
#933=DIRECTION('center_axis',(-1.,0.,0.));
#934=DIRECTION('ref_axis',(0.,0.,-1.));
#935=DIRECTION('center_axis',(0.,0.,-1.));
#936=DIRECTION('ref_axis',(0.707106781186541,0.707106781186554,0.));
#937=DIRECTION('center_axis',(0.,-1.,0.));
#938=DIRECTION('ref_axis',(-1.,0.,0.));
#939=DIRECTION('center_axis',(-1.,0.,0.));
#940=DIRECTION('ref_axis',(0.,-0.707106781186541,-0.707106781186554));
#941=DIRECTION('',(1.,0.,0.));
#942=DIRECTION('',(-1.,0.,0.));
#943=DIRECTION('center_axis',(0.,1.,0.));
#944=DIRECTION('ref_axis',(-0.707106781186541,0.,-0.707106781186554));
#945=DIRECTION('',(0.,-1.,0.));
#946=DIRECTION('',(0.,1.,0.));
#947=DIRECTION('center_axis',(0.,0.,1.));
#948=DIRECTION('ref_axis',(0.707106781186535,0.70710678118656,0.));
#949=DIRECTION('center_axis',(0.,0.,1.));
#950=DIRECTION('ref_axis',(0.707106781186535,0.70710678118656,0.));
#951=DIRECTION('',(0.,0.,-1.));
#952=DIRECTION('',(0.,0.,1.));
#953=DIRECTION('center_axis',(0.,0.,1.));
#954=DIRECTION('ref_axis',(-0.707106781186554,0.707106781186541,0.));
#955=DIRECTION('center_axis',(0.,0.,1.));
#956=DIRECTION('ref_axis',(-0.707106781186554,0.707106781186541,0.));
#957=DIRECTION('',(0.,0.,-1.));
#958=DIRECTION('',(0.,0.,1.));
#959=DIRECTION('center_axis',(0.,-1.,0.));
#960=DIRECTION('ref_axis',(0.707106781186551,0.,-0.707106781186544));
#961=DIRECTION('',(0.,1.,0.));
#962=DIRECTION('',(0.,-1.,0.));
#963=DIRECTION('center_axis',(0.,0.,1.));
#964=DIRECTION('ref_axis',(-0.707106781186551,-0.707106781186544,0.));
#965=DIRECTION('center_axis',(0.,0.,1.));
#966=DIRECTION('ref_axis',(-0.707106781186551,-0.707106781186544,0.));
#967=DIRECTION('',(0.,0.,-1.));
#968=DIRECTION('',(0.,0.,1.));
#969=DIRECTION('center_axis',(-1.,0.,0.));
#970=DIRECTION('ref_axis',(0.,-1.,0.));
#971=DIRECTION('',(0.,-1.,0.));
#972=DIRECTION('center_axis',(0.,1.,0.));
#973=DIRECTION('ref_axis',(-1.,0.,0.));
#974=DIRECTION('',(-1.,0.,0.));
#975=DIRECTION('center_axis',(0.,0.,-1.));
#976=DIRECTION('ref_axis',(-1.,0.,0.));
#977=DIRECTION('',(0.,-1.,0.));
#978=DIRECTION('',(-1.,0.,0.));
#979=DIRECTION('',(0.,1.,0.));
#980=DIRECTION('',(1.,0.,0.));
#981=DIRECTION('center_axis',(-0.408248290463864,-0.816496580927726,-0.408248290463863));
#982=DIRECTION('ref_axis',(-0.577350269189625,0.577350269189624,-0.577350269189628));
#983=DIRECTION('center_axis',(0.,1.,0.));
#984=DIRECTION('ref_axis',(-1.,0.,0.));
#985=DIRECTION('center_axis',(0.,0.,-1.));
#986=DIRECTION('ref_axis',(0.,1.,0.));
#987=DIRECTION('center_axis',(-1.,0.,0.));
#988=DIRECTION('ref_axis',(0.,0.,-1.));
#989=DIRECTION('center_axis',(0.,0.,-1.));
#990=DIRECTION('ref_axis',(-0.707106781186548,0.707106781186547,0.));
#991=DIRECTION('center_axis',(0.,0.,-1.));
#992=DIRECTION('ref_axis',(-0.707106781186548,0.707106781186547,0.));
#993=DIRECTION('',(0.,0.,-1.));
#994=DIRECTION('',(0.,0.,1.));
#995=DIRECTION('center_axis',(0.408248290463868,-0.816496580927722,-0.408248290463865));
#996=DIRECTION('ref_axis',(0.577350269189629,0.577350269189622,-0.577350269189626));
#997=DIRECTION('center_axis',(1.,0.,0.));
#998=DIRECTION('ref_axis',(0.,1.,0.));
#999=DIRECTION('center_axis',(0.,0.,-1.));
#1000=DIRECTION('ref_axis',(1.,0.,0.));
#1001=DIRECTION('center_axis',(0.,1.,0.));
#1002=DIRECTION('ref_axis',(0.,0.,-1.));
#1003=DIRECTION('center_axis',(0.,0.,1.));
#1004=DIRECTION('ref_axis',(0.707106781186548,0.707106781186548,0.));
#1005=DIRECTION('center_axis',(0.,0.,-1.));
#1006=DIRECTION('ref_axis',(0.707106781186548,0.707106781186548,0.));
#1007=DIRECTION('',(0.,0.,-1.));
#1008=DIRECTION('',(0.,0.,1.));
#1009=DIRECTION('center_axis',(0.408248290463863,0.408248290463863,-0.816496580927726));
#1010=DIRECTION('ref_axis',(-0.577350269189626,-0.577350269189626,-0.577350269189626));
#1011=DIRECTION('center_axis',(-1.,0.,2.22044604925031E-15));
#1012=DIRECTION('ref_axis',(0.,-1.,0.));
#1013=DIRECTION('center_axis',(0.,0.,-1.));
#1014=DIRECTION('ref_axis',(-1.,0.,0.));
#1015=DIRECTION('center_axis',(0.,-1.,0.));
#1016=DIRECTION('ref_axis',(0.,0.,-1.));
#1017=DIRECTION('center_axis',(0.,0.,1.));
#1018=DIRECTION('ref_axis',(-0.707106781186546,-0.707106781186549,0.));
#1019=DIRECTION('center_axis',(0.,0.,-1.));
#1020=DIRECTION('ref_axis',(-0.707106781186546,-0.707106781186549,0.));
#1021=DIRECTION('',(0.,0.,-1.));
#1022=DIRECTION('',(0.,0.,1.));
#1023=DIRECTION('center_axis',(0.,1.,0.));
#1024=DIRECTION('ref_axis',(-0.707106781186547,0.,-0.707106781186548));
#1025=DIRECTION('',(0.,1.,0.));
#1026=DIRECTION('center_axis',(-0.408248290463861,-0.816496580927728,0.408248290463861));
#1027=DIRECTION('ref_axis',(0.577350269189629,-0.577350269189622,-0.577350269189626));
#1028=DIRECTION('center_axis',(0.,-1.,-4.44089209850062E-15));
#1029=DIRECTION('ref_axis',(1.,0.,0.));
#1030=DIRECTION('center_axis',(0.,0.,-1.));
#1031=DIRECTION('ref_axis',(0.,-1.,0.));
#1032=DIRECTION('center_axis',(1.,0.,0.));
#1033=DIRECTION('ref_axis',(0.,0.,-1.));
#1034=DIRECTION('center_axis',(0.,0.,1.));
#1035=DIRECTION('ref_axis',(0.707106781186548,-0.707106781186548,0.));
#1036=DIRECTION('center_axis',(0.,0.,-1.));
#1037=DIRECTION('ref_axis',(0.707106781186548,-0.707106781186548,0.));
#1038=DIRECTION('',(0.,0.,-1.));
#1039=DIRECTION('',(0.,0.,1.));
#1040=DIRECTION('center_axis',(-1.,0.,0.));
#1041=DIRECTION('ref_axis',(0.,-0.707106781186549,-0.707106781186546));
#1042=DIRECTION('',(-1.,0.,0.));
#1043=DIRECTION('center_axis',(0.,-1.,0.));
#1044=DIRECTION('ref_axis',(0.707106781186546,0.,-0.707106781186549));
#1045=DIRECTION('',(0.,-1.,0.));
#1046=DIRECTION('center_axis',(1.,0.,0.));
#1047=DIRECTION('ref_axis',(0.,0.707106781186546,-0.707106781186549));
#1048=DIRECTION('',(1.,0.,0.));
#1049=DIRECTION('center_axis',(-1.,0.,0.));
#1050=DIRECTION('ref_axis',(0.,-1.,0.));
#1051=DIRECTION('',(0.,-1.,0.));
#1052=DIRECTION('center_axis',(0.,-1.,0.));
#1053=DIRECTION('ref_axis',(1.,0.,0.));
#1054=DIRECTION('',(1.,0.,0.));
#1055=DIRECTION('',(0.,0.,1.));
#1056=DIRECTION('',(0.,0.,-1.));
#1057=DIRECTION('',(-1.,0.,0.));
#1058=DIRECTION('center_axis',(0.,1.,0.));
#1059=DIRECTION('ref_axis',(1.,0.,0.));
#1060=DIRECTION('center_axis',(0.,1.,0.));
#1061=DIRECTION('ref_axis',(1.,0.,0.));
#1062=DIRECTION('center_axis',(0.,0.,1.));
#1063=DIRECTION('ref_axis',(1.,0.,0.));
#1064=DIRECTION('',(0.,1.,0.));
#1065=DIRECTION('',(-1.,0.,0.));
#1066=DIRECTION('',(2.22044604925031E-16,-1.,0.));
#1067=DIRECTION('',(5.55111512312578E-17,1.,0.));
#1068=DIRECTION('',(1.,0.,0.));
#1069=DIRECTION('center_axis',(0.,1.,0.));
#1070=DIRECTION('ref_axis',(1.,0.,0.));
#1071=DIRECTION('',(0.,1.,0.));
#1072=DIRECTION('center_axis',(0.,1.,0.));
#1073=DIRECTION('ref_axis',(1.,0.,0.));
#1074=DIRECTION('center_axis',(0.,-1.,0.));
#1075=DIRECTION('ref_axis',(1.,0.,0.));
#1076=DIRECTION('center_axis',(0.,1.,0.));
#1077=DIRECTION('ref_axis',(1.,0.,0.));
#1078=DIRECTION('',(0.,1.,0.));
#1079=DIRECTION('center_axis',(0.,1.,0.));
#1080=DIRECTION('ref_axis',(1.,0.,0.));
#1081=DIRECTION('center_axis',(0.,-1.,0.));
#1082=DIRECTION('ref_axis',(1.,0.,0.));
#1083=DIRECTION('center_axis',(-1.,0.,0.));
#1084=DIRECTION('ref_axis',(0.,0.,1.));
#1085=DIRECTION('',(0.,1.,0.));
#1086=DIRECTION('center_axis',(0.,0.,-1.));
#1087=DIRECTION('ref_axis',(-1.,0.,0.));
#1088=DIRECTION('',(0.,1.,0.));
#1089=DIRECTION('center_axis',(1.,0.,0.));
#1090=DIRECTION('ref_axis',(0.,0.,-1.));
#1091=DIRECTION('center_axis',(1.,0.,0.));
#1092=DIRECTION('ref_axis',(0.,1.,0.));
#1093=DIRECTION('',(0.,1.,0.));
#1094=DIRECTION('center_axis',(0.,-1.,0.));
#1095=DIRECTION('ref_axis',(1.,0.,0.));
#1096=DIRECTION('',(1.,0.,0.));
#1097=DIRECTION('center_axis',(0.,0.,1.));
#1098=DIRECTION('ref_axis',(1.,0.,0.));
#1099=DIRECTION('',(1.,5.13742695276015E-34,0.));
#1100=DIRECTION('',(5.55111512312578E-17,1.,0.));
#1101=DIRECTION('',(4.46958031714113E-34,-1.,0.));
#1102=DIRECTION('center_axis',(1.,-5.55111512312578E-17,0.));
#1103=DIRECTION('ref_axis',(-5.55111512312578E-17,-1.,-2.59924881164477E-17));
#1104=DIRECTION('',(0.,0.,-1.));
#1105=DIRECTION('center_axis',(5.13742695276015E-34,-1.,0.));
#1106=DIRECTION('ref_axis',(-1.,-5.13742695276015E-34,2.56938324883339E-18));
#1107=DIRECTION('',(0.,0.,-1.));
#1108=DIRECTION('center_axis',(-1.,-4.46958031714113E-34,0.));
#1109=DIRECTION('ref_axis',(-4.46958031714113E-34,1.,2.59924881164477E-17));
#1110=DIRECTION('center_axis',(0.,1.,0.));
#1111=DIRECTION('ref_axis',(-1.,0.,0.));
#1112=DIRECTION('center_axis',(1.,0.,0.));
#1113=DIRECTION('ref_axis',(0.,1.,0.));
#1114=CARTESIAN_POINT('',(0.,0.,0.));
#1115=CARTESIAN_POINT('Origin',(57.15,95.0332357974429,0.));
#1116=CARTESIAN_POINT('',(32.15,55.0332357974429,1.89434093640662E-15));
#1117=CARTESIAN_POINT('',(82.15,55.0332357974429,1.89434093640662E-15));
#1118=CARTESIAN_POINT('',(88.51,55.0332357974429,0.));
#1119=CARTESIAN_POINT('',(82.15,45.0332357974429,1.89434093640662E-15));
#1120=CARTESIAN_POINT('',(82.15,45.0332357974429,1.89434093640662E-15));
#1121=CARTESIAN_POINT('',(32.15,45.0332357974429,1.89434093640662E-15));
#1122=CARTESIAN_POINT('',(8.29000000000001,45.0332357974429,1.89434093640662E-15));
#1123=CARTESIAN_POINT('',(32.15,45.0332357974429,1.89434093640662E-15));
#1124=CARTESIAN_POINT('Origin',(-5.56999999999999,55.0332357974429,1.44316337678204E-15));
#1125=CARTESIAN_POINT('',(-5.56999999999999,55.0332357974429,4.));
#1126=CARTESIAN_POINT('',(-5.56999999999999,55.0332357974429,-35.));
#1127=CARTESIAN_POINT('',(-5.56999999999999,55.0332357974429,1.44316337678204E-15));
#1128=CARTESIAN_POINT('',(119.87,55.0332357974429,4.));
#1129=CARTESIAN_POINT('',(88.51,55.0332357974429,4.));
#1130=CARTESIAN_POINT('',(119.87,55.0332357974429,-35.));
#1131=CARTESIAN_POINT('',(119.87,55.0332357974429,4.));
#1132=CARTESIAN_POINT('',(25.79,55.0332357974429,-35.));
#1133=CARTESIAN_POINT('',(32.15,55.0332357974429,-10.));
#1134=CARTESIAN_POINT('',(32.15,55.0332357974429,-5.));
#1135=CARTESIAN_POINT('',(82.15,55.0332357974429,-10.));
#1136=CARTESIAN_POINT('',(38.29,55.0332357974429,-10.));
#1137=CARTESIAN_POINT('',(82.15,55.0332357974429,1.66875215659433E-15));
#1138=CARTESIAN_POINT('Origin',(30.15,68.0332357974429,-39.));
#1139=CARTESIAN_POINT('',(30.15,66.0332357974429,-40.));
#1140=CARTESIAN_POINT('',(28.15,68.0332357974429,-40.));
#1141=CARTESIAN_POINT('Origin',(30.15,68.0332357974429,-40.));
#1142=CARTESIAN_POINT('',(29.15,68.0332357974429,-39.));
#1143=CARTESIAN_POINT('Origin',(28.15,68.0332357974429,-39.));
#1144=CARTESIAN_POINT('',(30.15,67.0332357974429,-39.));
#1145=CARTESIAN_POINT('Origin',(30.15,68.0332357974429,-39.));
#1146=CARTESIAN_POINT('Origin',(30.15,66.0332357974429,-39.));
#1147=CARTESIAN_POINT('Origin',(84.15,68.0332357974429,-39.));
#1148=CARTESIAN_POINT('',(86.15,68.0332357974429,-40.));
#1149=CARTESIAN_POINT('',(84.15,66.0332357974429,-40.));
#1150=CARTESIAN_POINT('Origin',(84.15,68.0332357974429,-40.));
#1151=CARTESIAN_POINT('',(84.15,67.0332357974429,-39.));
#1152=CARTESIAN_POINT('Origin',(84.15,66.0332357974429,-39.));
#1153=CARTESIAN_POINT('',(85.15,68.0332357974429,-39.));
#1154=CARTESIAN_POINT('Origin',(84.15,68.0332357974429,-39.));
#1155=CARTESIAN_POINT('Origin',(86.15,68.0332357974429,-39.));
#1156=CARTESIAN_POINT('Origin',(71.15,66.0332357974429,-39.));
#1157=CARTESIAN_POINT('',(71.15,66.0332357974429,-40.));
#1158=CARTESIAN_POINT('',(71.15,67.0332357974429,-39.));
#1159=CARTESIAN_POINT('Origin',(84.15,68.0332357974429,-40.));
#1160=CARTESIAN_POINT('',(84.15,67.0332357974429,-35.));
#1161=CARTESIAN_POINT('',(85.15,68.0332357974429,-35.));
#1162=CARTESIAN_POINT('Origin',(84.15,68.0332357974429,-35.));
#1163=CARTESIAN_POINT('',(85.15,68.0332357974429,-40.));
#1164=CARTESIAN_POINT('',(84.15,67.0332357974429,-40.));
#1165=CARTESIAN_POINT('Origin',(30.15,122.033235797443,-39.));
#1166=CARTESIAN_POINT('',(28.15,122.033235797443,-40.));
#1167=CARTESIAN_POINT('',(30.15,124.033235797443,-40.));
#1168=CARTESIAN_POINT('Origin',(30.15,122.033235797443,-40.));
#1169=CARTESIAN_POINT('',(30.15,123.033235797443,-39.));
#1170=CARTESIAN_POINT('Origin',(30.15,124.033235797443,-39.));
#1171=CARTESIAN_POINT('',(29.15,122.033235797443,-39.));
#1172=CARTESIAN_POINT('Origin',(30.15,122.033235797443,-39.));
#1173=CARTESIAN_POINT('Origin',(28.15,122.033235797443,-39.));
#1174=CARTESIAN_POINT('Origin',(84.15,122.033235797443,-39.));
#1175=CARTESIAN_POINT('',(84.15,123.033235797443,-39.));
#1176=CARTESIAN_POINT('',(85.15,122.033235797443,-39.));
#1177=CARTESIAN_POINT('Origin',(84.15,122.033235797443,-39.));
#1178=CARTESIAN_POINT('',(84.15,124.033235797443,-40.));
#1179=CARTESIAN_POINT('Origin',(84.15,124.033235797443,-39.));
#1180=CARTESIAN_POINT('',(86.15,122.033235797443,-40.));
#1181=CARTESIAN_POINT('Origin',(84.15,122.033235797443,-40.));
#1182=CARTESIAN_POINT('Origin',(86.15,122.033235797443,-39.));
#1183=CARTESIAN_POINT('Origin',(43.15,124.033235797443,-39.));
#1184=CARTESIAN_POINT('',(43.15,124.033235797443,-40.));
#1185=CARTESIAN_POINT('',(43.15,123.033235797443,-39.));
#1186=CARTESIAN_POINT('Origin',(86.15,109.033235797443,-39.));
#1187=CARTESIAN_POINT('',(86.15,109.033235797443,-40.));
#1188=CARTESIAN_POINT('',(85.15,109.033235797443,-39.));
#1189=CARTESIAN_POINT('Origin',(84.15,122.033235797443,-40.));
#1190=CARTESIAN_POINT('',(85.15,122.033235797443,-35.));
#1191=CARTESIAN_POINT('',(84.15,123.033235797443,-35.));
#1192=CARTESIAN_POINT('Origin',(84.15,122.033235797443,-35.));
#1193=CARTESIAN_POINT('',(84.15,123.033235797443,-40.));
#1194=CARTESIAN_POINT('',(85.15,122.033235797443,-40.));
#1195=CARTESIAN_POINT('Origin',(30.15,122.033235797443,-40.));
#1196=CARTESIAN_POINT('',(30.15,123.033235797443,-35.));
#1197=CARTESIAN_POINT('',(29.15,122.033235797443,-35.));
#1198=CARTESIAN_POINT('Origin',(30.15,122.033235797443,-35.));
#1199=CARTESIAN_POINT('',(29.15,122.033235797443,-40.));
#1200=CARTESIAN_POINT('',(30.15,123.033235797443,-40.));
#1201=CARTESIAN_POINT('Origin',(28.15,81.0332357974429,-39.));
#1202=CARTESIAN_POINT('',(28.15,81.0332357974429,-40.));
#1203=CARTESIAN_POINT('',(29.15,81.0332357974429,-39.));
#1204=CARTESIAN_POINT('Origin',(30.15,68.0332357974429,-40.));
#1205=CARTESIAN_POINT('',(29.15,68.0332357974429,-35.));
#1206=CARTESIAN_POINT('',(30.15,67.0332357974429,-35.));
#1207=CARTESIAN_POINT('Origin',(30.15,68.0332357974429,-35.));
#1208=CARTESIAN_POINT('',(30.15,67.0332357974429,-40.));
#1209=CARTESIAN_POINT('',(29.15,68.0332357974429,-40.));
#1210=CARTESIAN_POINT('Origin',(85.15,123.033235797443,-40.));
#1211=CARTESIAN_POINT('',(85.15,67.0332357974429,-35.));
#1212=CARTESIAN_POINT('Origin',(85.15,67.0332357974429,-40.));
#1213=CARTESIAN_POINT('',(29.15,67.0332357974429,-35.));
#1214=CARTESIAN_POINT('Origin',(57.15,95.0332357974429,-40.));
#1215=CARTESIAN_POINT('',(-13.57,143.033235797443,-40.));
#1216=CARTESIAN_POINT('',(-13.57,47.0332357974429,-40.));
#1217=CARTESIAN_POINT('',(-13.57,120.033235797443,-40.));
#1218=CARTESIAN_POINT('',(127.87,143.033235797443,-40.));
#1219=CARTESIAN_POINT('',(93.51,143.033235797443,-40.));
#1220=CARTESIAN_POINT('',(127.87,47.0332357974429,-40.));
#1221=CARTESIAN_POINT('',(127.87,70.0332357974429,-40.));
#1222=CARTESIAN_POINT('',(20.79,47.0332357974429,-40.));
#1223=CARTESIAN_POINT('Origin',(-13.57,143.033235797443,-38.));
#1224=CARTESIAN_POINT('',(-15.57,143.033235797443,-38.));
#1225=CARTESIAN_POINT('Origin',(-13.57,143.033235797443,-38.));
#1226=CARTESIAN_POINT('',(-13.57,145.033235797443,-38.));
#1227=CARTESIAN_POINT('Origin',(-13.57,143.033235797443,-38.));
#1228=CARTESIAN_POINT('Origin',(-13.57,143.033235797443,-38.));
#1229=CARTESIAN_POINT('Origin',(-13.57,143.033235797443,0.));
#1230=CARTESIAN_POINT('',(-15.57,143.033235797443,4.));
#1231=CARTESIAN_POINT('',(-13.57,145.033235797443,4.));
#1232=CARTESIAN_POINT('Origin',(-13.57,143.033235797443,4.));
#1233=CARTESIAN_POINT('',(-13.57,145.033235797443,0.));
#1234=CARTESIAN_POINT('',(-15.57,143.033235797443,0.));
#1235=CARTESIAN_POINT('Origin',(127.87,143.033235797443,-38.));
#1236=CARTESIAN_POINT('',(127.87,145.033235797443,-38.));
#1237=CARTESIAN_POINT('Origin',(127.87,143.033235797443,-38.));
#1238=CARTESIAN_POINT('',(129.87,143.033235797443,-38.));
#1239=CARTESIAN_POINT('Origin',(127.87,143.033235797443,-38.));
#1240=CARTESIAN_POINT('Origin',(127.87,143.033235797443,-38.));
#1241=CARTESIAN_POINT('Origin',(127.87,143.033235797443,0.));
#1242=CARTESIAN_POINT('',(127.87,145.033235797443,4.));
#1243=CARTESIAN_POINT('',(129.87,143.033235797443,4.));
#1244=CARTESIAN_POINT('Origin',(127.87,143.033235797443,4.));
#1245=CARTESIAN_POINT('',(129.87,143.033235797443,0.));
#1246=CARTESIAN_POINT('',(127.87,145.033235797443,0.));
#1247=CARTESIAN_POINT('Origin',(-13.57,47.0332357974429,-38.));
#1248=CARTESIAN_POINT('',(-13.57,45.0332357974429,-38.));
#1249=CARTESIAN_POINT('Origin',(-13.57,47.0332357974429,-38.));
#1250=CARTESIAN_POINT('',(-15.57,47.0332357974429,-38.));
#1251=CARTESIAN_POINT('Origin',(-13.57,47.0332357974429,-38.));
#1252=CARTESIAN_POINT('Origin',(-13.57,47.0332357974429,-38.));
#1253=CARTESIAN_POINT('Origin',(-13.57,47.0332357974429,0.));
#1254=CARTESIAN_POINT('',(-13.57,45.0332357974429,4.));
#1255=CARTESIAN_POINT('',(-15.57,47.0332357974429,4.));
#1256=CARTESIAN_POINT('Origin',(-13.57,47.0332357974429,4.));
#1257=CARTESIAN_POINT('',(-15.57,47.0332357974429,0.));
#1258=CARTESIAN_POINT('',(-13.57,45.0332357974429,0.));
#1259=CARTESIAN_POINT('Origin',(-13.57,120.033235797443,-38.));
#1260=CARTESIAN_POINT('',(-15.57,120.033235797443,-38.));
#1261=CARTESIAN_POINT('Origin',(127.87,47.0332357974429,-38.));
#1262=CARTESIAN_POINT('',(129.87,47.0332357974429,-38.));
#1263=CARTESIAN_POINT('Origin',(127.87,47.0332357974429,-38.));
#1264=CARTESIAN_POINT('',(127.87,45.0332357974429,-38.));
#1265=CARTESIAN_POINT('Origin',(127.87,47.0332357974429,-38.));
#1266=CARTESIAN_POINT('Origin',(127.87,47.0332357974429,-38.));
#1267=CARTESIAN_POINT('Origin',(127.87,47.0332357974429,0.));
#1268=CARTESIAN_POINT('',(129.87,47.0332357974429,4.));
#1269=CARTESIAN_POINT('',(127.87,45.0332357974429,4.));
#1270=CARTESIAN_POINT('Origin',(127.87,47.0332357974429,4.));
#1271=CARTESIAN_POINT('',(127.87,45.0332357974429,0.));
#1272=CARTESIAN_POINT('',(129.87,47.0332357974429,0.));
#1273=CARTESIAN_POINT('Origin',(20.79,47.0332357974429,-38.));
#1274=CARTESIAN_POINT('',(20.79,45.0332357974429,-38.));
#1275=CARTESIAN_POINT('Origin',(127.87,70.0332357974429,-38.));
#1276=CARTESIAN_POINT('',(129.87,70.0332357974429,-38.));
#1277=CARTESIAN_POINT('Origin',(93.51,143.033235797443,-38.));
#1278=CARTESIAN_POINT('',(93.51,145.033235797443,-38.));
#1279=CARTESIAN_POINT('Origin',(-15.57,145.033235797443,0.));
#1280=CARTESIAN_POINT('',(-15.57,145.033235797443,4.));
#1281=CARTESIAN_POINT('Origin',(-15.57,45.0332357974429,0.));
#1282=CARTESIAN_POINT('',(-15.57,45.0332357974429,4.));
#1283=CARTESIAN_POINT('',(32.15,45.0332357974429,-10.));
#1284=CARTESIAN_POINT('',(32.15,45.0332357974429,-5.));
#1285=CARTESIAN_POINT('',(82.15,45.0332357974429,-10.));
#1286=CARTESIAN_POINT('',(82.15,45.0332357974429,9.4717046820331E-16));
#1287=CARTESIAN_POINT('',(33.29,45.0332357974429,-10.));
#1288=CARTESIAN_POINT('',(-12.57,45.0332357974429,-9.));
#1289=CARTESIAN_POINT('Origin',(-9.56999999999999,45.0332357974429,-9.));
#1290=CARTESIAN_POINT('',(120.87,45.0332357974429,-9.));
#1291=CARTESIAN_POINT('Origin',(123.87,45.0332357974429,-9.));
#1292=CARTESIAN_POINT('Origin',(57.15,95.0332357974429,4.));
#1293=CARTESIAN_POINT('',(129.87,45.0332357974429,4.));
#1294=CARTESIAN_POINT('',(129.87,145.033235797443,4.));
#1295=CARTESIAN_POINT('',(119.87,135.033235797443,4.));
#1296=CARTESIAN_POINT('',(119.87,115.033235797443,4.));
#1297=CARTESIAN_POINT('',(-5.56999999999999,135.033235797443,4.));
#1298=CARTESIAN_POINT('',(-5.56999999999999,75.0332357974429,4.));
#1299=CARTESIAN_POINT('',(25.79,135.033235797443,4.));
#1300=CARTESIAN_POINT('Origin',(123.87,45.0332357974429,-9.));
#1301=CARTESIAN_POINT('',(120.87,46.5332357974429,-9.));
#1302=CARTESIAN_POINT('',(120.87,45.0332357974429,-9.));
#1303=CARTESIAN_POINT('Origin',(123.87,46.5332357974429,-9.));
#1304=CARTESIAN_POINT('Origin',(123.87,46.5332357974429,-9.));
#1305=CARTESIAN_POINT('Origin',(-9.56999999999999,45.0332357974429,-9.));
#1306=CARTESIAN_POINT('',(-12.57,46.5332357974429,-9.));
#1307=CARTESIAN_POINT('',(-12.57,45.0332357974429,-9.));
#1308=CARTESIAN_POINT('Origin',(-9.56999999999999,46.5332357974429,-9.));
#1309=CARTESIAN_POINT('Origin',(-9.56999999999999,46.5332357974429,-9.));
#1310=CARTESIAN_POINT('Origin',(32.15,45.0332357974429,-10.));
#1311=CARTESIAN_POINT('',(32.15,45.0332357974429,-10.));
#1312=CARTESIAN_POINT('Origin',(82.15,45.0332357974429,-10.));
#1313=CARTESIAN_POINT('',(82.15,45.0332357974429,-10.));
#1314=CARTESIAN_POINT('Origin',(82.15,45.0332357974429,1.89434093640662E-15));
#1315=CARTESIAN_POINT('Origin',(29.15,67.0332357974429,-40.));
#1316=CARTESIAN_POINT('',(29.15,123.033235797443,-35.));
#1317=CARTESIAN_POINT('Origin',(29.15,123.033235797443,-40.));
#1318=CARTESIAN_POINT('',(85.15,123.033235797443,-35.));
#1319=CARTESIAN_POINT('Origin',(57.15,95.0332357974429,-35.));
#1320=CARTESIAN_POINT('',(-5.56999999999999,135.033235797443,-35.));
#1321=CARTESIAN_POINT('',(119.87,135.033235797443,-35.));
#1322=CARTESIAN_POINT('',(88.51,135.033235797443,-35.));
#1323=CARTESIAN_POINT('',(-5.56999999999999,115.033235797443,-35.));
#1324=CARTESIAN_POINT('',(119.87,75.0332357974429,-35.));
#1325=CARTESIAN_POINT('Origin',(-5.56999999999999,135.033235797443,3.52256242609786E-15));
#1326=CARTESIAN_POINT('',(-5.56999999999999,135.033235797443,4.));
#1327=CARTESIAN_POINT('Origin',(119.87,135.033235797443,3.2002589913642E-15));
#1328=CARTESIAN_POINT('',(119.87,135.033235797443,4.));
#1329=CARTESIAN_POINT('Origin',(119.87,55.0332357974429,1.12085994204838E-15));
#1330=CARTESIAN_POINT('Origin',(129.87,145.033235797443,0.));
#1331=CARTESIAN_POINT('Origin',(129.87,45.0332357974429,0.));
#1332=UNCERTAINTY_MEASURE_WITH_UNIT(LENGTH_MEASURE(0.01),#1336,
'DISTANCE_ACCURACY_VALUE',
'Maximum model space distance between geometric entities at asserted c
onnectivities');
#1333=UNCERTAINTY_MEASURE_WITH_UNIT(LENGTH_MEASURE(0.01),#1336,
'DISTANCE_ACCURACY_VALUE',
'Maximum model space distance between geometric entities at asserted c
onnectivities');
#1334=(
GEOMETRIC_REPRESENTATION_CONTEXT(3)
GLOBAL_UNCERTAINTY_ASSIGNED_CONTEXT((#1332))
GLOBAL_UNIT_ASSIGNED_CONTEXT((#1336,#1338,#1339))
REPRESENTATION_CONTEXT('','3D')
);
#1335=(
GEOMETRIC_REPRESENTATION_CONTEXT(3)
GLOBAL_UNCERTAINTY_ASSIGNED_CONTEXT((#1333))
GLOBAL_UNIT_ASSIGNED_CONTEXT((#1336,#1338,#1339))
REPRESENTATION_CONTEXT('','3D')
);
#1336=(
LENGTH_UNIT()
NAMED_UNIT(*)
SI_UNIT(.MILLI.,.METRE.)
);
#1337=(
LENGTH_UNIT()
NAMED_UNIT(*)
SI_UNIT($,.METRE.)
);
#1338=(
NAMED_UNIT(*)
PLANE_ANGLE_UNIT()
SI_UNIT($,.RADIAN.)
);
#1339=(
NAMED_UNIT(*)
SI_UNIT($,.STERADIAN.)
SOLID_ANGLE_UNIT()
);
#1340=SHAPE_DEFINITION_REPRESENTATION(#1341,#1342);
#1341=PRODUCT_DEFINITION_SHAPE('',$,#1344);
#1342=SHAPE_REPRESENTATION('',(#784),#1334);
#1343=PRODUCT_DEFINITION_CONTEXT('part definition',#1348,'design');
#1344=PRODUCT_DEFINITION('big switch case','big switch case',#1345,#1343);
#1345=PRODUCT_DEFINITION_FORMATION('',$,#1350);
#1346=PRODUCT_RELATED_PRODUCT_CATEGORY('big switch case',
'big switch case',(#1350));
#1347=APPLICATION_PROTOCOL_DEFINITION('international standard',
'automotive_design',2009,#1348);
#1348=APPLICATION_CONTEXT(
'Core Data for Automotive Mechanical Design Process');
#1349=PRODUCT_CONTEXT('part definition',#1348,'mechanical');
#1350=PRODUCT('big switch case','big switch case',$,(#1349));
#1351=PRESENTATION_STYLE_ASSIGNMENT((#1353));
#1352=PRESENTATION_STYLE_ASSIGNMENT((#1354));
#1353=SURFACE_STYLE_USAGE(.BOTH.,#1355);
#1354=SURFACE_STYLE_USAGE(.BOTH.,#1356);
#1355=SURFACE_SIDE_STYLE('',(#1357));
#1356=SURFACE_SIDE_STYLE('',(#1358));
#1357=SURFACE_STYLE_FILL_AREA(#1359);
#1358=SURFACE_STYLE_FILL_AREA(#1360);
#1359=FILL_AREA_STYLE('Steel - Satin',(#1361));
#1360=FILL_AREA_STYLE('ABS (White)',(#1362));
#1361=FILL_AREA_STYLE_COLOUR('Steel - Satin',#1363);
#1362=FILL_AREA_STYLE_COLOUR('ABS (White)',#1364);
#1363=COLOUR_RGB('Steel - Satin',0.627450980392157,0.627450980392157,0.627450980392157);
#1364=COLOUR_RGB('ABS (White)',0.964705882352941,0.964705882352941,0.952941176470588);
ENDSEC;
END-ISO-10303-21;
